<svg width="1600" height="900" viewBox="0 0 1600 900" xmlns="http://www.w3.org/2000/svg">
  <rect width="1600" height="900" fill="#eef7fb"/>
  <rect x="55" y="70" width="1490" height="760" rx="36" fill="#ffffff" stroke="#cfe3ee" stroke-width="4"/>

  <text x="800" y="130" text-anchor="middle" font-family="Segoe UI, Arial, sans-serif" font-size="44" font-weight="700" fill="#0f6078">Smarty Weather Station Architecture</text>

  <rect x="120" y="190" width="260" height="470" rx="28" fill="#e9f6fb" stroke="#65a8c3" stroke-width="4"/>
  <rect x="430" y="285" width="250" height="280" rx="28" fill="#eefafc" stroke="#65a8c3" stroke-width="4"/>
  <rect x="760" y="190" width="340" height="470" rx="28" fill="#edf9fc" stroke="#65a8c3" stroke-width="4"/>
  <rect x="1160" y="190" width="320" height="470" rx="28" fill="#f1fbfd" stroke="#65a8c3" stroke-width="4"/>

  <rect x="155" y="155" width="190" height="64" rx="16" fill="#2f9fd1"/>
  <rect x="472" y="250" width="166" height="64" rx="16" fill="#2f9fd1"/>
  <rect x="840" y="155" width="180" height="64" rx="16" fill="#2f9fd1"/>
  <rect x="1230" y="155" width="180" height="64" rx="16" fill="#2f9fd1"/>

  <text x="250" y="198" text-anchor="middle" font-family="Segoe UI, Arial, sans-serif" font-size="30" font-weight="700" fill="#ffffff">Sensors</text>
  <text x="555" y="293" text-anchor="middle" font-family="Segoe UI, Arial, sans-serif" font-size="30" font-weight="700" fill="#ffffff">Gateway</text>
  <text x="930" y="198" text-anchor="middle" font-family="Segoe UI, Arial, sans-serif" font-size="30" font-weight="700" fill="#ffffff">Backend</text>
  <text x="1320" y="198" text-anchor="middle" font-family="Segoe UI, Arial, sans-serif" font-size="30" font-weight="700" fill="#ffffff">Frontend</text>

  <text x="250" y="285" text-anchor="middle" font-family="Segoe UI, Arial, sans-serif" font-size="34" font-weight="700" fill="#123a52">DHT22</text>
  <text x="250" y="340" text-anchor="middle" font-family="Segoe UI, Arial, sans-serif" font-size="34" font-weight="700" fill="#123a52">BMP280</text>
  <text x="250" y="395" text-anchor="middle" font-family="Segoe UI, Arial, sans-serif" font-size="34" font-weight="700" fill="#123a52">Soil Sensor</text>
  <text x="250" y="505" text-anchor="middle" font-family="Segoe UI, Arial, sans-serif" font-size="34" font-weight="700" fill="#123a52">Sensor ESP32</text>
  <text x="250" y="555" text-anchor="middle" font-family="Segoe UI, Arial, sans-serif" font-size="26" fill="#496b80">temperature, humidity,</text>
  <text x="250" y="592" text-anchor="middle" font-family="Segoe UI, Arial, sans-serif" font-size="26" fill="#496b80">pressure, altitude, soil</text>

  <text x="555" y="390" text-anchor="middle" font-family="Segoe UI, Arial, sans-serif" font-size="34" font-weight="700" fill="#123a52">Display / Gateway</text>
  <text x="555" y="440" text-anchor="middle" font-family="Segoe UI, Arial, sans-serif" font-size="34" font-weight="700" fill="#123a52">ESP32 + TFT</text>
  <text x="555" y="500" text-anchor="middle" font-family="Segoe UI, Arial, sans-serif" font-size="24" fill="#496b80">wireless display</text>
  <text x="555" y="534" text-anchor="middle" font-family="Segoe UI, Arial, sans-serif" font-size="24" fill="#496b80">packet freshness</text>

  <rect x="815" y="255" width="230" height="84" rx="18" fill="#ffffff" stroke="#86bdd2" stroke-width="3"/>
  <rect x="815" y="368" width="230" height="84" rx="18" fill="#ffffff" stroke="#86bdd2" stroke-width="3"/>
  <rect x="815" y="481" width="230" height="84" rx="18" fill="#ffffff" stroke="#86bdd2" stroke-width="3"/>
  <text x="930" y="308" text-anchor="middle" font-family="Segoe UI, Arial, sans-serif" font-size="30" font-weight="700" fill="#123a52">Flask API</text>
  <text x="930" y="421" text-anchor="middle" font-family="Segoe UI, Arial, sans-serif" font-size="30" font-weight="700" fill="#123a52">MongoDB</text>
  <text x="930" y="534" text-anchor="middle" font-family="Segoe UI, Arial, sans-serif" font-size="30" font-weight="700" fill="#123a52">History + Analysis</text>

  <rect x="1212" y="270" width="215" height="120" rx="18" fill="#ffffff" stroke="#86bdd2" stroke-width="3"/>
  <rect x="1212" y="445" width="215" height="120" rx="18" fill="#ffffff" stroke="#86bdd2" stroke-width="3"/>
  <text x="1320" y="325" text-anchor="middle" font-family="Segoe UI, Arial, sans-serif" font-size="30" font-weight="700" fill="#123a52">Vue Dashboard</text>
  <text x="1320" y="360" text-anchor="middle" font-family="Segoe UI, Arial, sans-serif" font-size="22" fill="#496b80">live metrics</text>
  <text x="1320" y="500" text-anchor="middle" font-family="Segoe UI, Arial, sans-serif" font-size="30" font-weight="700" fill="#123a52">Analysis Views</text>
  <text x="1320" y="535" text-anchor="middle" font-family="Segoe UI, Arial, sans-serif" font-size="22" fill="#496b80">trends and review</text>

  <line x1="380" y1="425" x2="430" y2="425" stroke="#ff8b1f" stroke-width="10" stroke-linecap="round"/>
  <polygon points="430,425 406,411 406,439" fill="#ff8b1f"/>
  <text x="405" y="385" text-anchor="middle" font-family="Segoe UI, Arial, sans-serif" font-size="26" font-weight="700" fill="#ff8b1f">ESP-NOW</text>

  <line x1="680" y1="425" x2="760" y2="425" stroke="#ff8b1f" stroke-width="10" stroke-linecap="round"/>
  <polygon points="760,425 736,411 736,439" fill="#ff8b1f"/>
  <text x="720" y="385" text-anchor="middle" font-family="Segoe UI, Arial, sans-serif" font-size="24" font-weight="700" fill="#ff8b1f">Wi-Fi + HTTP</text>

  <line x1="1100" y1="425" x2="1160" y2="425" stroke="#2f9fd1" stroke-width="10" stroke-linecap="round"/>
  <polygon points="1160,425 1136,411 1136,439" fill="#2f9fd1"/>
  <text x="1130" y="385" text-anchor="middle" font-family="Segoe UI, Arial, sans-serif" font-size="24" font-weight="700" fill="#2f9fd1">API</text>

  <text x="800" y="760" text-anchor="middle" font-family="Segoe UI, Arial, sans-serif" font-size="28" fill="#4a677d">End-to-end flow: sense locally, transmit wirelessly, store centrally, visualize remotely</text>
</svg>
